<svg viewBox="0 0 215 43" xmlns="http://www.w3.org/2000/svg" data-logo="logo">
        <g transform="translate(0, 1.5) rotate(0)" id="logogram" style="opacity: 1;"><path fill="#004666" d="M24.6625 0C29.5499 0.000157557 33.512 3.87456 33.5121 8.65224C33.5121 8.91866 33.4997 9.18398 33.4824 9.44828H40.9366C48.1871 9.44828 51.0342 18.6407 45.0014 22.5723L37.1131 27.7122C35.415 28.8193 35.8805 31.3743 37.8654 31.84C38.5143 31.9921 39.1997 31.8658 39.7475 31.4934L44.3242 28.1927C44.4979 28.0675 44.7074 28 44.9225 28H57.4922C57.9872 28 58.1886 28.6281 57.7838 28.909L44.4783 38.1397C41.99 39.8319 38.8796 40.4048 35.9321 39.7133C26.9186 37.5986 24.8061 26.0015 32.5185 20.9749L37.7818 17.5457H29.7048H24.5358C23.0515 17.5457 21.6504 17.1926 20.4171 16.5691C21.7314 17.4535 24.9805 18.4377 27.7216 18.6251C27.9658 18.6251 28.3625 18.8385 27.8901 19.3183L11.2952 35.7067C11.105 35.8945 10.847 36 10.578 36H0.507884C0.056246 36 -0.169872 35.4613 0.149574 35.1463L19.5219 16.0472C17.1349 14.4709 15.5652 11.8013 15.5649 8.77349C15.5649 3.92875 19.5825 0 24.5385 0H24.6625ZM24.8419 6.74915C23.6982 6.74915 22.771 7.35337 22.771 8.09871C22.7715 8.71319 23.4024 9.23009 24.2648 9.39292C24.3487 9.42847 24.4413 9.44828 24.5385 9.44828H25.1533C25.1544 9.44225 25.1535 9.43586 25.1546 9.42983C26.1495 9.33152 26.9122 8.77441 26.9127 8.09871C26.9127 7.35337 25.9855 6.74915 24.8419 6.74915Z" clip-rule="evenodd" fill-rule="evenodd"></path></g>
        <g transform="translate(64, 1)" id="logotype" style="opacity: 1;"><path d="M13.52 34L8.31 34L8.31 8.54L18.24 8.54Q21.14 8.54 23.18 9.64Q25.21 10.74 26.28 12.68Q27.35 14.62 27.35 17.13L27.35 17.13Q27.35 19.66 26.26 21.58Q25.17 23.51 23.12 24.59Q21.06 25.68 18.12 25.68L18.12 25.68L11.73 25.68L11.73 21.47L17.28 21.47Q18.89 21.47 19.92 20.92Q20.95 20.36 21.46 19.39Q21.96 18.41 21.96 17.13L21.96 17.13Q21.96 15.85 21.46 14.88Q20.95 13.90 19.91 13.37Q18.87 12.84 17.26 12.84L17.26 12.84L13.52 12.84L13.52 34ZM33.92 34.38L33.92 34.38Q32.11 34.38 30.67 33.74Q29.22 33.09 28.39 31.82Q27.57 30.55 27.57 28.65L27.57 28.65Q27.57 27.06 28.15 25.98Q28.74 24.91 29.76 24.26Q30.78 23.61 32.07 23.27Q33.36 22.93 34.78 22.79L34.78 22.79Q36.43 22.62 37.45 22.47Q38.47 22.33 38.94 22.01Q39.41 21.70 39.41 21.08L39.41 21.08L39.41 20.99Q39.41 20.17 39.07 19.61Q38.73 19.05 38.06 18.75Q37.39 18.45 36.42 18.45L36.42 18.45Q35.43 18.45 34.69 18.75Q33.96 19.05 33.50 19.54Q33.03 20.04 32.81 20.65L32.81 20.65L28.11 19.87Q28.61 18.21 29.75 17.05Q30.90 15.88 32.60 15.27Q34.30 14.65 36.42 14.65L36.42 14.65Q37.97 14.65 39.43 15.02Q40.88 15.39 42.03 16.16Q43.19 16.93 43.86 18.16Q44.54 19.39 44.54 21.13L44.54 21.13L44.54 34L39.68 34L39.68 31.35L39.51 31.35Q39.05 32.24 38.28 32.91Q37.51 33.59 36.43 33.98Q35.34 34.38 33.92 34.38ZM35.38 30.77L35.38 30.77Q36.59 30.77 37.50 30.29Q38.42 29.81 38.93 28.99Q39.44 28.17 39.44 27.16L39.44 27.16L39.44 25.10Q39.22 25.27 38.76 25.40Q38.30 25.54 37.73 25.64Q37.17 25.75 36.62 25.83Q36.08 25.92 35.65 25.97L35.65 25.97Q34.71 26.10 33.99 26.41Q33.27 26.72 32.88 27.22Q32.49 27.73 32.49 28.51L32.49 28.51Q32.49 29.25 32.86 29.75Q33.24 30.26 33.88 30.51Q34.52 30.77 35.38 30.77ZM51.76 41.14L46.64 41.14L46.64 14.89L51.68 14.89L51.68 18.11L51.92 18.11Q52.28 17.35 52.93 16.55Q53.59 15.75 54.67 15.20Q55.74 14.65 57.37 14.65L57.37 14.65Q59.49 14.65 61.25 15.75Q63.01 16.84 64.06 19.03Q65.11 21.22 65.11 24.48L65.11 24.48Q65.11 27.66 64.08 29.86Q63.06 32.05 61.30 33.19Q59.54 34.32 57.33 34.32L57.33 34.32Q55.78 34.32 54.70 33.79Q53.63 33.27 52.95 32.49Q52.28 31.71 51.92 30.94L51.92 30.94L51.76 30.94L51.76 41.14ZM55.76 30.21L55.76 30.21Q57.09 30.21 58.01 29.47Q58.92 28.74 59.39 27.44Q59.86 26.14 59.86 24.46L59.86 24.46Q59.86 22.79 59.39 21.51Q58.92 20.23 58.02 19.49Q57.11 18.76 55.76 18.76L55.76 18.76Q54.45 18.76 53.52 19.47Q52.60 20.17 52.12 21.45Q51.64 22.72 51.64 24.46L51.64 24.46Q51.64 26.19 52.13 27.48Q52.62 28.77 53.54 29.49Q54.46 30.21 55.76 30.21ZM75.05 34.38L75.05 34.38Q72.13 34.38 70.01 33.18Q67.89 31.98 66.76 29.78Q65.62 27.57 65.62 24.55L65.62 24.55Q65.62 21.59 66.75 19.37Q67.88 17.15 69.94 15.90Q72.01 14.65 74.80 14.65L74.80 14.65Q76.68 14.65 78.30 15.25Q79.92 15.85 81.15 17.06Q82.39 18.26 83.08 20.07Q83.77 21.88 83.77 24.34L83.77 24.34L83.77 25.78L67.72 25.78L67.72 22.57L81.26 22.57L78.86 23.42Q78.86 21.93 78.41 20.83Q77.96 19.73 77.06 19.12Q76.16 18.52 74.83 18.52L74.83 18.52Q73.52 18.52 72.58 19.13Q71.65 19.75 71.17 20.80Q70.70 21.85 70.70 23.20L70.70 23.20L70.70 25.47Q70.70 27.13 71.25 28.26Q71.81 29.39 72.81 29.95Q73.81 30.51 75.14 30.51L75.14 30.51Q76.05 30.51 76.78 30.26Q77.51 30.00 78.04 29.50Q78.56 28.99 78.83 28.26L78.83 28.26L83.48 29.13Q83.02 30.70 81.87 31.89Q80.73 33.08 79.01 33.73Q77.29 34.38 75.05 34.38ZM90.13 34L85.00 34L85.00 14.89L89.95 14.89L89.95 18.23L90.16 18.23Q90.69 16.45 91.93 15.54Q93.17 14.64 94.77 14.64L94.77 14.64Q95.17 14.64 95.62 14.68Q96.07 14.72 96.43 14.81L96.43 14.81L96.43 19.39Q96.09 19.27 95.44 19.20Q94.79 19.13 94.21 19.13L94.21 19.13Q93.05 19.13 92.11 19.64Q91.17 20.14 90.65 21.04Q90.13 21.93 90.13 23.13L90.13 23.13L90.13 34ZM95.13 14.89L106.46 14.89L106.46 18.81L95.13 18.81L95.13 14.89ZM97.76 28.86L97.76 10.35L102.89 10.35L102.89 28.41Q102.89 29.32 103.29 29.75Q103.69 30.19 104.63 30.19L104.63 30.19Q104.92 30.19 105.45 30.11Q105.98 30.04 106.26 29.97L106.26 29.97L106.99 33.81Q106.14 34.07 105.29 34.17Q104.44 34.27 103.68 34.27L103.68 34.27Q100.80 34.27 99.28 32.87Q97.76 31.47 97.76 28.86L97.76 28.86ZM112.65 34L107.52 34L107.52 14.89L112.47 14.89L112.47 18.23L112.68 18.23Q113.21 16.45 114.45 15.54Q115.69 14.64 117.29 14.64L117.29 14.64Q117.69 14.64 118.14 14.68Q118.59 14.72 118.95 14.81L118.95 14.81L118.95 19.39Q118.61 19.27 117.96 19.20Q117.31 19.13 116.73 19.13L116.73 19.13Q115.57 19.13 114.63 19.64Q113.69 20.14 113.17 21.04Q112.65 21.93 112.65 23.13L112.65 23.13L112.65 34ZM124.83 34.38L124.83 34.38Q123.02 34.38 121.57 33.74Q120.13 33.09 119.30 31.82Q118.47 30.55 118.47 28.65L118.47 28.65Q118.47 27.06 119.06 25.98Q119.65 24.91 120.67 24.26Q121.68 23.61 122.97 23.27Q124.26 22.93 125.68 22.79L125.68 22.79Q127.34 22.62 128.36 22.47Q129.37 22.33 129.84 22.01Q130.31 21.70 130.31 21.08L130.31 21.08L130.31 20.99Q130.31 20.17 129.97 19.61Q129.63 19.05 128.96 18.75Q128.30 18.45 127.32 18.45L127.32 18.45Q126.33 18.45 125.60 18.75Q124.86 19.05 124.40 19.54Q123.94 20.04 123.72 20.65L123.72 20.65L119.02 19.87Q119.51 18.21 120.66 17.05Q121.80 15.88 123.50 15.27Q125.20 14.65 127.32 14.65L127.32 14.65Q128.88 14.65 130.33 15.02Q131.78 15.39 132.94 16.16Q134.09 16.93 134.77 18.16Q135.44 19.39 135.44 21.13L135.44 21.13L135.44 34L130.59 34L130.59 31.35L130.42 31.35Q129.96 32.24 129.19 32.91Q128.42 33.59 127.33 33.98Q126.25 34.38 124.83 34.38ZM126.28 30.77L126.28 30.77Q127.49 30.77 128.41 30.29Q129.32 29.81 129.84 28.99Q130.35 28.17 130.35 27.16L130.35 27.16L130.35 25.10Q130.13 25.27 129.66 25.40Q129.20 25.54 128.64 25.64Q128.08 25.75 127.53 25.83Q126.98 25.92 126.55 25.97L126.55 25.97Q125.61 26.10 124.90 26.41Q124.18 26.72 123.79 27.22Q123.39 27.73 123.39 28.51L123.39 28.51Q123.39 29.25 123.77 29.75Q124.14 30.26 124.79 30.51Q125.43 30.77 126.28 30.77ZM142.67 34L137.54 34L137.54 14.89L142.67 14.89L142.67 34ZM140.10 12.40L140.10 12.40Q138.94 12.40 138.12 11.63Q137.30 10.86 137.30 9.77L137.30 9.77Q137.30 8.67 138.12 7.90Q138.94 7.13 140.10 7.13L140.10 7.13Q141.27 7.13 142.10 7.90Q142.92 8.66 142.92 9.77L142.92 9.77Q142.92 10.86 142.10 11.63Q141.27 12.40 140.10 12.40ZM144.75 8.54L149.88 8.54L149.88 34L144.75 34L144.75 8.54Z" fill="#111111"></path></g>
        
      </svg>